<?xml version="1.0" encoding="UTF-8"?>
<svg width="700pt" height="700pt" version="1.1" viewBox="0 0 700 700" xmlns="http://www.w3.org/2000/svg" xmlns:xlink="http://www.w3.org/1999/xlink">
 <g>
  <path d="m505.68 119.28h-311.36c-12.879 0-23.52 10.641-23.52 23.52 0 12.879 10.641 23.52 23.52 23.52h311.36c12.879 0 23.52-10.641 23.52-23.52 0-12.879-10.641-23.52-23.52-23.52z"/>
  <path d="m449.68 256.48h-255.36c-12.879 0-23.52 10.641-23.52 23.52s10.641 23.52 23.52 23.52h255.36c12.879 0 23.52-10.641 23.52-23.52s-10.641-23.52-23.52-23.52z"/>
  <path d="m393.68 393.12h-199.36c-12.879 0-23.52 10.641-23.52 23.52s10.641 23.52 23.52 23.52h199.36c12.879 0 23.52-10.641 23.52-23.52s-10.641-23.52-23.52-23.52z"/>
 </g>
</svg>
