<svg width="218" height="35" viewBox="0 0 218 35" fill="none" xmlns="http://www.w3.org/2000/svg">
<g clip-path="url(#clip0_8_3)">
<path d="M25.6333 16.3737L24.4125 11.4454C24.3225 11.0854 24.0427 10.8037 23.6827 10.7147L21.1608 10.0838L23.6827 9.45284C24.0387 9.36382 24.3185 9.08696 24.4104 8.73089L24.7509 7.40831C24.7724 7.32711 24.7822 7.22246 24.7822 7.13832C24.7822 6.95635 24.7333 6.77738 24.6374 6.62084C23.2777 4.36509 21.2352 3.0719 19.0322 3.0719C17.156 3.0719 16.213 3.72634 15.4558 4.25263C14.7946 4.71235 14.2702 5.07529 13.0221 5.07529C11.7739 5.07529 11.2495 4.71235 10.5883 4.25263C9.83112 3.72634 8.88812 3.0719 7.01188 3.0719C3.14593 3.0719 0 7.11588 0 12.0872C0 22.2645 5.9026 32.2179 6.15302 32.6367C6.33299 32.9379 6.65975 33.1228 7.01188 33.1228C9.837 33.1228 10.4806 29.8995 10.9991 27.3092C11.4921 24.8481 11.9245 23.1058 13.0221 23.1058C14.1197 23.1058 14.552 24.8481 15.045 27.3092C15.5635 29.8995 16.2071 33.1228 19.0322 33.1228C19.3844 33.1228 19.7092 32.9379 19.8911 32.6367C20.0711 32.3353 24.3342 25.1601 25.6509 16.7699C25.6704 16.6379 25.6645 16.5029 25.6333 16.3737Z" fill="url(#paint0_linear_8_3)"/>
<path d="M33.4322 9.11237L27.4704 7.65577L26.0148 1.82757C25.9033 1.38155 25.5022 1.06848 25.0424 1.06848C24.5827 1.06848 24.1816 1.38155 24.0701 1.82857L22.6184 7.65384L16.7862 9.11237C16.3402 9.22289 16.0272 9.62397 16.0272 10.0838C16.0272 10.5435 16.3402 10.9446 16.7862 11.0551L22.6125 12.5117L24.072 18.3468C24.1855 18.7899 24.5847 19.099 25.0424 19.099H25.0464C25.5041 19.0971 25.9033 18.785 26.0148 18.3399L27.4704 12.5117L33.4322 11.0551C33.8783 10.9446 34.1913 10.5435 34.1913 10.0838C34.1913 9.62397 33.8783 9.22289 33.4322 9.11237Z" fill="#7B55EC"/>
</g>
<path d="M46.95 28V10.138H54.412C56.3533 10.138 57.9913 10.4587 59.326 11.1C60.678 11.7413 61.7007 12.7207 62.394 14.038C63.1047 15.338 63.46 17.0107 63.46 19.056C63.46 21.084 63.1047 22.7653 62.394 24.1C61.7007 25.4173 60.678 26.3967 59.326 27.038C57.9913 27.6793 56.3533 28 54.412 28H46.95ZM51.604 24.36H54.36C55.088 24.36 55.7207 24.256 56.258 24.048C56.7953 23.84 57.246 23.5367 57.61 23.138C57.974 22.7393 58.2427 22.2453 58.416 21.656C58.5893 21.0667 58.676 20.3907 58.676 19.628V18.536C58.676 17.756 58.5893 17.0713 58.416 16.482C58.2427 15.8927 57.974 15.3987 57.61 15C57.246 14.6013 56.7953 14.298 56.258 14.09C55.7207 13.882 55.088 13.778 54.36 13.778H51.604V24.36ZM72.947 28.312C71.387 28.312 70.061 28.0607 68.969 27.558C67.877 27.038 67.0363 26.2493 66.447 25.192C65.875 24.1347 65.589 22.7827 65.589 21.136C65.589 19.524 65.875 18.1893 66.447 17.132C67.019 16.0747 67.8423 15.286 68.917 14.766C69.9916 14.246 71.283 13.986 72.791 13.986C74.2816 13.986 75.5383 14.2373 76.561 14.74C77.601 15.2427 78.3896 16.014 78.927 17.054C79.4643 18.094 79.733 19.4373 79.733 21.084V21.994H69.905C69.905 22.722 70.009 23.3373 70.217 23.84C70.425 24.3427 70.7456 24.724 71.179 24.984C71.6123 25.244 72.193 25.374 72.921 25.374C73.3543 25.374 73.7356 25.322 74.065 25.218C74.3943 25.114 74.6716 24.9667 74.897 24.776C75.1223 24.568 75.2956 24.3253 75.417 24.048C75.5383 23.7707 75.599 23.4587 75.599 23.112H79.733C79.733 23.944 79.577 24.6893 79.265 25.348C78.9703 25.9893 78.5283 26.5353 77.939 26.986C77.3496 27.4193 76.6303 27.7487 75.781 27.974C74.949 28.1993 74.0043 28.312 72.947 28.312ZM69.931 19.628H75.391C75.391 19.1773 75.3303 18.7873 75.209 18.458C75.105 18.1113 74.9403 17.8253 74.715 17.6C74.507 17.3747 74.247 17.21 73.935 17.106C73.6403 16.9847 73.2936 16.924 72.895 16.924C72.271 16.924 71.751 17.028 71.335 17.236C70.919 17.444 70.5983 17.7473 70.373 18.146C70.1476 18.5447 70.0003 19.0387 69.931 19.628ZM82.3366 28V14.298H85.8466L86.1586 16.248H86.3406C86.6873 15.78 87.0859 15.3727 87.5366 15.026C87.9873 14.6793 88.4986 14.4193 89.0706 14.246C89.6426 14.0727 90.2493 13.986 90.8906 13.986C91.8786 13.986 92.7106 14.168 93.3866 14.532C94.0799 14.896 94.6086 15.442 94.9726 16.17C95.3366 16.898 95.5186 17.8253 95.5186 18.952V28H91.2546V19.55C91.2546 19.1687 91.2026 18.848 91.0986 18.588C91.0119 18.3107 90.8819 18.0767 90.7086 17.886C90.5353 17.6953 90.3186 17.5567 90.0586 17.47C89.7986 17.3833 89.5039 17.34 89.1746 17.34C88.6719 17.34 88.2299 17.4613 87.8486 17.704C87.4673 17.9293 87.1639 18.2413 86.9386 18.64C86.7133 19.0213 86.6006 19.472 86.6006 19.992V28H82.3366ZM103.498 28.312C102.614 28.312 101.86 28.182 101.236 27.922C100.63 27.6447 100.17 27.2373 99.8582 26.7C99.5635 26.1627 99.4162 25.5127 99.4162 24.75V17.392H97.6222V14.298H99.5462L100.43 10.294H103.654V14.298H106.332V17.392H103.654V23.71C103.654 24.1953 103.75 24.568 103.94 24.828C104.131 25.088 104.478 25.218 104.98 25.218H106.332V27.87C106.107 27.9393 105.821 28.0087 105.474 28.078C105.145 28.1647 104.807 28.2253 104.46 28.26C104.114 28.2947 103.793 28.312 103.498 28.312ZM108.692 12.452V9.176H112.956V12.452H108.692ZM108.692 28V14.298H112.956V28H108.692ZM122.058 28.312C121.157 28.312 120.308 28.2167 119.51 28.026C118.73 27.8353 118.037 27.558 117.43 27.194C116.841 26.83 116.373 26.3793 116.026 25.842C115.697 25.3047 115.532 24.6807 115.532 23.97C115.532 23.9007 115.532 23.84 115.532 23.788C115.532 23.7187 115.541 23.658 115.558 23.606H119.588C119.588 23.6407 119.588 23.684 119.588 23.736C119.588 23.7707 119.588 23.8053 119.588 23.84C119.606 24.2213 119.727 24.542 119.952 24.802C120.195 25.0447 120.507 25.2267 120.888 25.348C121.27 25.452 121.686 25.504 122.136 25.504C122.466 25.504 122.812 25.4693 123.176 25.4C123.558 25.3307 123.878 25.2093 124.138 25.036C124.398 24.8627 124.528 24.6113 124.528 24.282C124.528 23.918 124.364 23.6407 124.034 23.45C123.722 23.2593 123.298 23.1033 122.76 22.982C122.24 22.8433 121.677 22.7133 121.07 22.592C120.464 22.4533 119.848 22.2973 119.224 22.124C118.618 21.9507 118.054 21.7167 117.534 21.422C117.032 21.11 116.624 20.7113 116.312 20.226C116 19.7407 115.844 19.1253 115.844 18.38C115.844 17.5827 116.009 16.9067 116.338 16.352C116.685 15.78 117.153 15.3207 117.742 14.974C118.332 14.6273 119.008 14.376 119.77 14.22C120.55 14.064 121.374 13.986 122.24 13.986C123.038 13.986 123.792 14.064 124.502 14.22C125.23 14.376 125.88 14.6187 126.452 14.948C127.042 15.26 127.501 15.6673 127.83 16.17C128.16 16.6553 128.324 17.2273 128.324 17.886C128.324 17.9727 128.316 18.068 128.298 18.172C128.298 18.2587 128.298 18.3193 128.298 18.354H124.294V18.146C124.294 17.8513 124.199 17.6087 124.008 17.418C123.818 17.2273 123.558 17.08 123.228 16.976C122.899 16.8547 122.535 16.794 122.136 16.794C121.876 16.794 121.616 16.82 121.356 16.872C121.114 16.9067 120.888 16.9673 120.68 17.054C120.472 17.1233 120.299 17.2273 120.16 17.366C120.039 17.5047 119.978 17.678 119.978 17.886C119.978 18.146 120.091 18.3627 120.316 18.536C120.542 18.692 120.845 18.822 121.226 18.926C121.625 19.03 122.058 19.1427 122.526 19.264C123.168 19.4027 123.844 19.55 124.554 19.706C125.265 19.8447 125.932 20.0527 126.556 20.33C127.198 20.59 127.709 20.9887 128.09 21.526C128.489 22.046 128.688 22.7653 128.688 23.684C128.688 24.5507 128.515 25.2873 128.168 25.894C127.822 26.4833 127.345 26.96 126.738 27.324C126.132 27.6707 125.43 27.922 124.632 28.078C123.835 28.234 122.977 28.312 122.058 28.312ZM136.049 28.312C135.165 28.312 134.411 28.182 133.787 27.922C133.18 27.6447 132.721 27.2373 132.409 26.7C132.114 26.1627 131.967 25.5127 131.967 24.75V17.392H130.173V14.298H132.097L132.981 10.294H136.205V14.298H138.883V17.392H136.205V23.71C136.205 24.1953 136.3 24.568 136.491 24.828C136.682 25.088 137.028 25.218 137.531 25.218H138.883V27.87C138.658 27.9393 138.372 28.0087 138.025 28.078C137.696 28.1647 137.358 28.2253 137.011 28.26C136.664 28.2947 136.344 28.312 136.049 28.312ZM141.243 12.452V9.176H145.507V12.452H141.243ZM141.243 28V14.298H145.507V28H141.243ZM148.733 28V14.298H152.243L152.555 16.248H152.737C153.049 15.78 153.422 15.3727 153.855 15.026C154.306 14.6793 154.8 14.4193 155.337 14.246C155.874 14.0727 156.446 13.986 157.053 13.986C157.989 13.986 158.786 14.1767 159.445 14.558C160.104 14.922 160.606 15.4853 160.953 16.248H161.135C161.447 15.78 161.82 15.3727 162.253 15.026C162.704 14.6793 163.198 14.4193 163.735 14.246C164.29 14.0727 164.862 13.986 165.451 13.986C166.404 13.986 167.21 14.168 167.869 14.532C168.528 14.8787 169.03 15.416 169.377 16.144C169.741 16.8547 169.923 17.7647 169.923 18.874V28H165.659V19.524C165.659 19.1427 165.616 18.822 165.529 18.562C165.442 18.2847 165.321 18.0593 165.165 17.886C165.009 17.6953 164.81 17.5567 164.567 17.47C164.324 17.3833 164.064 17.34 163.787 17.34C163.336 17.34 162.929 17.4613 162.565 17.704C162.218 17.9293 161.95 18.2413 161.759 18.64C161.568 19.0213 161.473 19.472 161.473 19.992V28H157.209V19.524C157.209 19.1427 157.166 18.822 157.079 18.562C156.992 18.2847 156.871 18.0593 156.715 17.886C156.559 17.6953 156.36 17.5567 156.117 17.47C155.874 17.3833 155.614 17.34 155.337 17.34C154.886 17.34 154.479 17.4613 154.115 17.704C153.768 17.9293 153.491 18.2413 153.283 18.64C153.092 19.0213 152.997 19.472 152.997 19.992V28H148.733ZM179.713 28.312C178.187 28.312 176.879 28.052 175.787 27.532C174.712 27.012 173.88 26.2233 173.291 25.166C172.719 24.0913 172.433 22.748 172.433 21.136C172.433 19.524 172.719 18.1893 173.291 17.132C173.88 16.0747 174.712 15.286 175.787 14.766C176.879 14.246 178.187 13.986 179.713 13.986C181.255 13.986 182.564 14.246 183.639 14.766C184.731 15.286 185.563 16.0747 186.135 17.132C186.724 18.1893 187.019 19.524 187.019 21.136C187.019 22.748 186.724 24.0913 186.135 25.166C185.563 26.2233 184.731 27.012 183.639 27.532C182.564 28.052 181.255 28.312 179.713 28.312ZM179.713 25.218C180.423 25.218 180.995 25.0793 181.429 24.802C181.879 24.5247 182.2 24.126 182.391 23.606C182.599 23.0687 182.703 22.41 182.703 21.63V20.668C182.703 19.888 182.599 19.2293 182.391 18.692C182.2 18.1547 181.879 17.756 181.429 17.496C180.995 17.2187 180.423 17.08 179.713 17.08C179.019 17.08 178.447 17.2187 177.997 17.496C177.563 17.756 177.243 18.1547 177.035 18.692C176.844 19.2293 176.749 19.888 176.749 20.668V21.63C176.749 22.41 176.844 23.0687 177.035 23.606C177.243 24.126 177.563 24.5247 177.997 24.802C178.447 25.0793 179.019 25.218 179.713 25.218Z" fill="#181945"/>
<path d="M189.847 28V23.658H194.371V28H189.847Z" fill="#7B55EC"/>
<defs>
<linearGradient id="paint0_linear_8_3" x1="12.8311" y1="33.1228" x2="12.8311" y2="3.0719" gradientUnits="userSpaceOnUse">
<stop stop-color="#ADDCFF"/>
<stop offset="0.5028" stop-color="#EAF6FF"/>
<stop offset="1" stop-color="#EAF6FF"/>
</linearGradient>
<clipPath id="clip0_8_3">
<rect width="34.1913" height="34.1913" fill="white"/>
</clipPath>
</defs>
</svg>
